<?xml version="1.0" encoding="UTF-8"?>
<svg id="Layer_2" xmlns="http://www.w3.org/2000/svg" viewBox="0 0 216 216">
  <defs>
    <style>
      .cls-1 {
        fill: #353a47;
      }

      .cls-2 {
        fill: #fffdfd;
      }
    </style>
  </defs>
  <g id="Layer_1-2" data-name="Layer_1">
    <g>
      <g>
        <rect class="cls-1" x="2.5" y="2.5" width="211" height="211" rx="9.5" ry="9.5"/>
        <path d="M204,5c3.86,0,7,3.14,7,7v192c0,3.86-3.14,7-7,7H12c-3.86,0-7-3.14-7-7V12c0-3.86,3.14-7,7-7h192M204,0H12C5.4,0,0,5.4,0,12v192c0,6.6,5.4,12,12,12h192c6.6,0,12-5.4,12-12V12c0-6.6-5.4-12-12-12h0Z"/>
      </g>
      <polyline class="cls-2" points="17 95 17 105 199 105 199 95 17 95"/>
      <polyline class="cls-2" points="51 98 46 98 46 142 51 142 51 98"/>
      <path class="cls-2" d="M48.5,142c5.79,0,10.5,4.71,10.5,10.5s-4.71,10.5-10.5,10.5-10.5-4.71-10.5-10.5,4.71-10.5,10.5-10.5M48.5,137c-8.56,0-15.5,6.94-15.5,15.5s6.94,15.5,15.5,15.5,15.5-6.94,15.5-15.5-6.94-15.5-15.5-15.5h0Z"/>
      <path class="cls-2" d="M48.5,158c5.79,0,10.5,4.71,10.5,10.5s-4.71,10.5-10.5,10.5-10.5-4.71-10.5-10.5,4.71-10.5,10.5-10.5M48.5,153c-8.56,0-15.5,6.94-15.5,15.5s6.94,15.5,15.5,15.5,15.5-6.94,15.5-15.5-6.94-15.5-15.5-15.5h0Z"/>
      <polyline class="cls-2" points="165 98 160 98 160 142 165 142 165 98"/>
      <path class="cls-2" d="M163,142c3.31,0,6,2.69,6,6s-2.69,6-6,6-6-2.69-6-6,2.69-6,6-6M163,137c-6.08,0-11,4.92-11,11s4.92,11,11,11,11-4.92,11-11-4.92-11-11-11h0Z"/>
    </g>
  </g>
</svg>